<mxfile host="app.diagrams.net" agent="Mozilla/5.0 (Windows NT 10.0; Win64; x64; rv:140.0) Gecko/20100101 Firefox/140.0" version="27.2.0" pages="2">
  <diagram name="Page-1" id="ykRLNVOLOKHC2bJ4DWAj">
    <mxGraphModel dx="1426" dy="871" grid="1" gridSize="10" guides="1" tooltips="1" connect="1" arrows="1" fold="1" page="1" pageScale="1" pageWidth="827" pageHeight="1169" math="0" shadow="0">
      <root>
        <mxCell id="0" />
        <mxCell id="1" parent="0" />
        <mxCell id="CMA8XBqm2qWhmdWb3wr0-2" value="&lt;div style=&quot;background-color:#2b2b2b;color:#a9b7c6;font-family:&#39;JetBrains Mono&#39;,monospace;font-size:9,8pt;&quot;&gt;&lt;pre&gt;&lt;span style=&quot;color:#6a8759;&quot;&gt;comColorGroupFacetAll_fr_string_mv&lt;/span&gt;&lt;/pre&gt;&lt;/div&gt;" style="text;html=1;align=center;verticalAlign=middle;whiteSpace=wrap;rounded=0;" vertex="1" parent="1">
          <mxGeometry x="120" y="60" width="110" height="100" as="geometry" />
        </mxCell>
      </root>
    </mxGraphModel>
  </diagram>
  <diagram id="LCi2GR72Xq1Tyv7-mcUB" name="EquipStream-croquis">
    <mxGraphModel dx="991" dy="543" grid="1" gridSize="10" guides="1" tooltips="1" connect="1" arrows="1" fold="1" page="1" pageScale="1" pageWidth="850" pageHeight="1100" math="0" shadow="0">
      <root>
        <mxCell id="0" />
        <mxCell id="1" parent="0" />
        <mxCell id="PzrljxPqK079l_KoaIDu-1" value="CRM&lt;br&gt;(Admin-equipstream)" style="rounded=0;whiteSpace=wrap;html=1;" parent="1" vertex="1">
          <mxGeometry x="211" y="143" width="170" height="60" as="geometry" />
        </mxCell>
        <mxCell id="PzrljxPqK079l_KoaIDu-2" value="API Getway" style="rounded=1;whiteSpace=wrap;html=1;" parent="1" vertex="1">
          <mxGeometry x="120" y="345" width="720" height="30" as="geometry" />
        </mxCell>
        <mxCell id="PzrljxPqK079l_KoaIDu-3" value="Web client&lt;br&gt;(E-equipstream)" style="rounded=0;whiteSpace=wrap;html=1;" parent="1" vertex="1">
          <mxGeometry x="390" y="143" width="170" height="60" as="geometry" />
        </mxCell>
        <mxCell id="PzrljxPqK079l_KoaIDu-4" value="Mobile client&lt;br&gt;(Mob-equipstream)" style="rounded=0;whiteSpace=wrap;html=1;" parent="1" vertex="1">
          <mxGeometry x="570" y="143" width="170" height="60" as="geometry" />
        </mxCell>
        <mxCell id="PzrljxPqK079l_KoaIDu-9" value="Auth Service&lt;br&gt;(JWT, OAuth2, KeyCloak Okta)" style="rounded=0;whiteSpace=wrap;html=1;" parent="1" vertex="1">
          <mxGeometry x="148" y="460" width="170" height="60" as="geometry" />
        </mxCell>
        <mxCell id="PzrljxPqK079l_KoaIDu-10" value="&lt;div&gt;Equipment Catalog Service&lt;/div&gt;&lt;div&gt;(Search, filters, ICV, ADNOC)&lt;/div&gt;" style="rounded=0;whiteSpace=wrap;html=1;" parent="1" vertex="1">
          <mxGeometry x="149" y="600" width="170" height="60" as="geometry" />
        </mxCell>
        <mxCell id="PzrljxPqK079l_KoaIDu-11" value="&lt;div&gt;Survey / SOW Parser&lt;/div&gt;&lt;div&gt;(Forms, Timeline input)&lt;/div&gt;" style="rounded=0;whiteSpace=wrap;html=1;" parent="1" vertex="1">
          <mxGeometry x="149" y="880" width="170" height="60" as="geometry" />
        </mxCell>
        <mxCell id="PzrljxPqK079l_KoaIDu-12" value="&lt;div&gt;RFQ &amp;amp; Order Service&lt;/div&gt;&lt;div&gt;(Quotas, PO, Payments)&lt;/div&gt;" style="rounded=0;whiteSpace=wrap;html=1;" parent="1" vertex="1">
          <mxGeometry x="389" y="600" width="170" height="60" as="geometry" />
        </mxCell>
        <mxCell id="PzrljxPqK079l_KoaIDu-13" value="&lt;div&gt;Review &amp;amp; Rating Service&lt;/div&gt;&lt;div&gt;(Ratings, KPIs)&lt;/div&gt;" style="rounded=0;whiteSpace=wrap;html=1;" parent="1" vertex="1">
          <mxGeometry x="640" y="600" width="170" height="60" as="geometry" />
        </mxCell>
        <mxCell id="PzrljxPqK079l_KoaIDu-14" value="Notification Service&lt;br&gt;(Email, Sms, Push)" style="rounded=0;whiteSpace=wrap;html=1;" parent="1" vertex="1">
          <mxGeometry x="640" y="459" width="170" height="60" as="geometry" />
        </mxCell>
        <mxCell id="PzrljxPqK079l_KoaIDu-15" value="&lt;div&gt;User Profile Service&lt;/div&gt;&lt;div&gt;(Roles, Docs validation)&lt;/div&gt;" style="rounded=0;whiteSpace=wrap;html=1;" parent="1" vertex="1">
          <mxGeometry x="391" y="460" width="170" height="60" as="geometry" />
        </mxCell>
        <mxCell id="PzrljxPqK079l_KoaIDu-17" value="&lt;div&gt;Asset Management Service&lt;/div&gt;&lt;div&gt;(Planning, RIO, Calendar)&lt;/div&gt;" style="rounded=0;whiteSpace=wrap;html=1;" parent="1" vertex="1">
          <mxGeometry x="149" y="738" width="170" height="60" as="geometry" />
        </mxCell>
        <mxCell id="PzrljxPqK079l_KoaIDu-18" value="" style="endArrow=none;html=1;rounded=0;" parent="1" edge="1">
          <mxGeometry width="50" height="50" relative="1" as="geometry">
            <mxPoint x="240" y="400" as="sourcePoint" />
            <mxPoint x="720" y="400" as="targetPoint" />
          </mxGeometry>
        </mxCell>
        <mxCell id="PzrljxPqK079l_KoaIDu-20" value="" style="endArrow=classic;html=1;rounded=0;" parent="1" edge="1">
          <mxGeometry width="50" height="50" relative="1" as="geometry">
            <mxPoint x="240" y="400" as="sourcePoint" />
            <mxPoint x="240.5" y="450" as="targetPoint" />
          </mxGeometry>
        </mxCell>
        <mxCell id="PzrljxPqK079l_KoaIDu-21" value="" style="endArrow=classic;html=1;rounded=0;entryX=0.5;entryY=0;entryDx=0;entryDy=0;" parent="1" edge="1">
          <mxGeometry width="50" height="50" relative="1" as="geometry">
            <mxPoint x="237.5" y="520" as="sourcePoint" />
            <mxPoint x="238" y="600" as="targetPoint" />
          </mxGeometry>
        </mxCell>
        <mxCell id="PzrljxPqK079l_KoaIDu-22" value="" style="endArrow=classic;html=1;rounded=0;" parent="1" edge="1">
          <mxGeometry width="50" height="50" relative="1" as="geometry">
            <mxPoint x="479.5" y="400" as="sourcePoint" />
            <mxPoint x="480" y="450" as="targetPoint" />
          </mxGeometry>
        </mxCell>
        <mxCell id="PzrljxPqK079l_KoaIDu-23" value="" style="endArrow=classic;html=1;rounded=0;" parent="1" edge="1">
          <mxGeometry width="50" height="50" relative="1" as="geometry">
            <mxPoint x="720" y="400" as="sourcePoint" />
            <mxPoint x="720.5" y="450" as="targetPoint" />
          </mxGeometry>
        </mxCell>
        <mxCell id="PzrljxPqK079l_KoaIDu-24" value="" style="endArrow=classic;html=1;rounded=0;entryX=0.5;entryY=0;entryDx=0;entryDy=0;" parent="1" edge="1">
          <mxGeometry width="50" height="50" relative="1" as="geometry">
            <mxPoint x="479.5" y="520" as="sourcePoint" />
            <mxPoint x="480" y="600" as="targetPoint" />
          </mxGeometry>
        </mxCell>
        <mxCell id="PzrljxPqK079l_KoaIDu-26" value="" style="endArrow=classic;html=1;rounded=0;entryX=0.5;entryY=0;entryDx=0;entryDy=0;" parent="1" edge="1">
          <mxGeometry width="50" height="50" relative="1" as="geometry">
            <mxPoint x="240" y="660" as="sourcePoint" />
            <mxPoint x="240.5" y="740" as="targetPoint" />
          </mxGeometry>
        </mxCell>
        <mxCell id="PzrljxPqK079l_KoaIDu-27" value="" style="endArrow=classic;html=1;rounded=0;entryX=0.5;entryY=0;entryDx=0;entryDy=0;" parent="1" edge="1">
          <mxGeometry width="50" height="50" relative="1" as="geometry">
            <mxPoint x="240" y="798" as="sourcePoint" />
            <mxPoint x="240.5" y="878" as="targetPoint" />
          </mxGeometry>
        </mxCell>
        <mxCell id="hlduiXEZDidcMha9Dhph-1" value="&lt;font style=&quot;font-size: 18px;&quot;&gt;&lt;b&gt;&lt;font&gt;VUE MACRO&lt;/font&gt;&lt;/b&gt;&lt;/font&gt;" style="text;html=1;align=center;verticalAlign=middle;whiteSpace=wrap;rounded=0;" vertex="1" parent="1">
          <mxGeometry x="394" y="83" width="160" height="30" as="geometry" />
        </mxCell>
        <mxCell id="hlduiXEZDidcMha9Dhph-2" value="&lt;div&gt;CDN&lt;/div&gt;&lt;div&gt;(file webP, css, mp3, mp4)&lt;/div&gt;" style="rounded=0;whiteSpace=wrap;html=1;" vertex="1" parent="1">
          <mxGeometry x="670" y="270" width="170" height="50" as="geometry" />
        </mxCell>
        <mxCell id="hlduiXEZDidcMha9Dhph-3" value="" style="endArrow=none;html=1;rounded=0;" edge="1" parent="1">
          <mxGeometry width="50" height="50" relative="1" as="geometry">
            <mxPoint x="240" y="240" as="sourcePoint" />
            <mxPoint x="680" y="241" as="targetPoint" />
          </mxGeometry>
        </mxCell>
        <mxCell id="hlduiXEZDidcMha9Dhph-8" value="" style="endArrow=classic;html=1;rounded=0;" edge="1" parent="1">
          <mxGeometry width="50" height="50" relative="1" as="geometry">
            <mxPoint x="441" y="203" as="sourcePoint" />
            <mxPoint x="440" y="240" as="targetPoint" />
          </mxGeometry>
        </mxCell>
        <mxCell id="hlduiXEZDidcMha9Dhph-9" value="" style="endArrow=classic;html=1;rounded=0;" edge="1" parent="1">
          <mxGeometry width="50" height="50" relative="1" as="geometry">
            <mxPoint x="295.5" y="203" as="sourcePoint" />
            <mxPoint x="296" y="240" as="targetPoint" />
          </mxGeometry>
        </mxCell>
        <mxCell id="hlduiXEZDidcMha9Dhph-10" value="" style="endArrow=classic;html=1;rounded=0;" edge="1" parent="1">
          <mxGeometry width="50" height="50" relative="1" as="geometry">
            <mxPoint x="639" y="203" as="sourcePoint" />
            <mxPoint x="640" y="240" as="targetPoint" />
          </mxGeometry>
        </mxCell>
        <mxCell id="hlduiXEZDidcMha9Dhph-12" value="" style="endArrow=classic;html=1;rounded=0;" edge="1" parent="1">
          <mxGeometry width="50" height="50" relative="1" as="geometry">
            <mxPoint x="440" y="245" as="sourcePoint" />
            <mxPoint x="441" y="345" as="targetPoint" />
          </mxGeometry>
        </mxCell>
        <mxCell id="hlduiXEZDidcMha9Dhph-13" value="" style="endArrow=classic;html=1;rounded=0;" edge="1" parent="1">
          <mxGeometry width="50" height="50" relative="1" as="geometry">
            <mxPoint x="670" y="294.5" as="sourcePoint" />
            <mxPoint x="440" y="295" as="targetPoint" />
          </mxGeometry>
        </mxCell>
      </root>
    </mxGraphModel>
  </diagram>
</mxfile>
